<svg width="67" height="67" viewBox="0 0 67 67" fill="none" xmlns="http://www.w3.org/2000/svg">
<path d="M25.0606 23.1195L31.5517 26.8671M31.5517 26.8671L35.2994 20.376M31.5517 26.8671L27.7794 12.7888C27.0218 9.9614 28.6998 7.0552 31.5271 6.29762L46.8853 2.1824C49.7126 1.42482 52.6189 3.1027 53.3765 5.93007L57.1488 20.0084M41.4722 43.4133L34.9811 39.6657M34.9811 39.6657L31.2334 46.1568M34.9811 39.6657L38.7534 53.744C39.5109 56.5713 37.833 59.4776 35.0057 60.2352L19.6475 64.3504C16.8201 65.108 13.9139 63.43 13.1563 60.6027L9.38405 46.5244M43.4133 25.0606L39.6657 31.5517M39.6657 31.5517L46.1568 35.2994M39.6657 31.5517L53.744 27.7794C56.5714 27.0219 59.4776 28.6998 60.2352 31.5271L64.3504 46.8853C65.108 49.7126 63.4301 52.6189 60.6027 53.3765L46.5244 57.1488M23.1195 41.4722L26.8671 34.9811M26.8671 34.9811L20.376 31.2334M26.8671 34.9811L12.7888 38.7534C9.96141 39.511 7.05521 37.833 6.29763 35.0057L2.18241 19.6475C1.42482 16.8201 3.1027 13.9139 5.93007 13.1563L20.0084 9.38404" stroke="black" stroke-width="4" stroke-linecap="round" stroke-linejoin="round"/>
</svg>
